#!OML:ASF F:\VICON\USERDATA\INSTALL\rory3\rory3.ASF
:FULLY-SPECIFIED
:DEGREES
133
root 0.8687384996990941 17.713499119559906 41.863192178976306 1.556341919458512 -0.2059788322986143 0.4542203784507173
lfemur -18.57102986824047 4.171479888864041 -18.758187576590704
ltibia 63.531341133668604
lfoot 2.763625736811692 -9.8070392385069
ltoes -4.711588429309857
rfemur -13.956375365522673 6.176200753872367 29.9650443180568
rtibia 49.69537131487804
rfoot -4.071537201181845 -4.821440356473344
rtoes 2.7478089673498447
lowerback 12.870620710264518 -0.009306421567746304 0.2726151733826432
upperback -0.4520988915530571 1.9894853288647667 1.9808973386075985
thorax -8.462685027591405 0.8970596976849512 0.20891436756674905
lowerneck -19.65723450754204 -3.920656015545892 -1.7249667849382915
upperneck 9.975063058856346 -5.521421637595783 3.0771606974139143
head 6.371839405183613 -2.330639829243355 0.7729499540282471
lclavicle 4.287488207731266e-15 5.75886165290891e-17
lhumerus -47.95552821404665 -12.187427595779237 96.93996889393887
lradius 109.25025938075188
lwrist 28.784751051521212
lhand -29.51340408017324 3.1147706820807666
lfingers 7.125019999999998
lthumb -2.9952643303481365 32.63582245331825
rclavicle 4.28752700038245e-15 5.761646213958064e-17
rhumerus -45.69620295236508 13.012051298194157 -98.65957632157559
rradius 105.42919451243576
rwrist -9.327940464477104
rhand -20.45784032660875 36.42281046885327
rfingers 7.125019999999998
rthumb 5.934348761967521 6.196758231835932
134
root 0.903246372968028 17.77586205590743 44.38427148879674 1.7860612523911925 0.2949165323443266 0.5969288117648022
lfemur -20.56770227654687 3.954423556499479 -19.1482180024407
ltibia 61.511653652775436
lfoot 2.7618370972423967 -10.165153909292751
ltoes -4.554665416023832
rfemur -13.189311993392758 6.1003024605371845 30.03979207317181
rtibia 49.42349026038312
rfoot -4.994140893971969 -5.364535476875669
rtoes 3.1758467267210344
lowerback 12.869403109091852 0.039220192907828855 0.40628068902800374
upperback -0.4616794427015428 2.1767735698594723 1.9752888329254776
thorax -8.501185065661605 0.9624464671243467 -0.03457218152300462
lowerneck -19.76005254752254 -4.0284855881907475 -1.7826890965605855
upperneck 9.920128697029275 -5.614921088571327 3.0366856547600602
head 6.401560908646925 -2.3236520825400726 0.7823094191978555
lclavicle 4.287488207731266e-15 5.75886165290891e-17
lhumerus -49.64809335725582 -12.165062684512597 96.91488261783098
lradius 109.60510570748518
lwrist 28.71146701838119
lhand -29.652017914963157 2.892117358243167
lfingers 7.125019999999998
lthumb -2.9300319994672237 32.7089039101941
rclavicle 4.28752700038245e-15 5.761646213958064e-17
rhumerus -44.76640633109241 13.21759690169376 -98.59285231939424
rradius 105.49201186606757
rwrist -9.393901595594189
rhand -20.418492600286502 36.49854556389663
rfingers 7.125019999999998
rthumb 5.979660186503835 6.228993143059397
135
root 0.8592553775346403 17.71786067361164 41.336309369045644 1.6391290672702636 -0.19567397715679186 0.15273592096128707
lfemur -19.56523756116575 3.879349714283736 -19.063747180021387
ltibia 59.275224947562556
lfoot 3.2061422973694773 -9.858722270572246
ltoes -4.404922007717163
rfemur -13.446405426660284 5.912297889766559 29.666362964171718
rtibia 49.743575577867894
rfoot -5.193314289304478 -5.766607373595214
rtoes 2.314580769965195
lowerback 12.930146223439984 0.16069108729587323 0.7483155426335908
upperback -0.509167764028905 2.3732902931678677 1.9433950845017667
thorax -8.450070148602615 1.0681268693289896 -0.13731558349323275
lowerneck -19.59417941520198 -3.9629765020015926 -1.7340736726709183
upperneck 10.12092129772498 -5.562004607133407 3.1241897407075405
head 6.407079852898123 -2.3062211223135654 0.7883736814625457
lclavicle 4.287488207731266e-15 5.75886165290891e-17
lhumerus -50.56927966654249 -12.144186034974048 96.87998937419425
lradius 109.74928590555007
lwrist 28.62255164496734
lhand -29.62534285261466 2.7762030857973006
lfingers 7.125019999999998
lthumb -2.9995530847626966 32.62913265079645
rclavicle 4.28752700038245e-15 5.761646213958064e-17
rhumerus -43.99769506968138 13.395074503437105 -98.53069507267114
rradius 105.525972233009
rwrist -9.39114941638833
rhand -20.432994358360407 36.45644190815591
rfingers 7.125019999999998
rthumb 6.010727364011033 6.283915246898022
136
root 0.8908022249575971 17.78483838920291 43.12708747643611 1.8904446002602355 0.1783248308908355 0.21984464224148548
lfemur -21.418781061863864 3.549661145624255 -19.076248882073713
ltibia 56.630921683979224
lfoot 3.097282495236392 -9.553724284485659
ltoes -4.832385099105606
rfemur -13.036547497818788 5.738476916110634 29.496123469698695
rtibia 50.553134694805536
rfoot -5.786173884656953 -5.94429985942546
rtoes 2.7209027763854348
lowerback 12.873550464902408 0.20831644356643964 0.8932847701040411
upperback -0.5670281235753367 2.581059007257707 1.919816660901831
thorax -8.470906122947389 1.087870836496374 -0.3324943841874591
lowerneck -19.621672161527755 -4.0547766554029785 -1.7849421707191473
upperneck 10.05665757282176 -5.599922775985472 3.091248657020364
head 6.3972972762427345 -2.29554000699653 0.7910230472205608
lclavicle 4.287488207731266e-15 5.75886165290891e-17
lhumerus -51.030291872663035 -11.648538478875269 97.00056440345391
lradius 109.91118323383348
lwrist 28.574984959870992
lhand -29.624057377216513 2.6462951046355183
lfingers 7.125019999999998
lthumb -3.033831425929831 32.64633594226401
rclavicle 4.28752700038245e-15 5.761646213958064e-17
rhumerus -43.241914266338675 13.603866274808766 -98.43728424274366
rradius 105.54723447909842
rwrist -9.321577476981734
rhand -20.448850943488196 36.49680957740356
rfingers 7.125019999999998
rthumb 6.060501154664956 6.354659693787621
137
root 0.8823692305814845 17.78218151369693 42.036871241712106 1.8334431003125666 0.037641731953063085 0.05294537765083884
lfemur -22.872192194227146 3.0238062562470724 -19.77579098162061
ltibia 53.895404645917
lfoot 3.434743051502112 -9.756715595144097
ltoes -5.162613608705135
rfemur -11.080927778751187 5.6586586441721 29.85532800232302
rtibia 51.38774012047216
rfoot -5.824903811793773 -5.913501519879283
rtoes 2.7166500117805654
lowerback 12.838610779257015 0.2944410299727158 1.0912159937403318
upperback -0.5869032017643088 2.86281254916262 1.9235095788027188
thorax -8.416410068807082 1.19522076365699 -0.3474287754836806
lowerneck -19.516858258692572 -3.98483623281046 -1.732851595195229
upperneck 10.175747372990045 -5.577066266823323 3.1366793846405847
head 6.3889192165666735 -2.3048620729705367 0.7918885374295792
lclavicle 4.287488207731266e-15 5.75886165290891e-17
lhumerus -52.38052274529211 -11.8084533272522 96.83607933438536
lradius 109.97224890912287
lwrist 28.651009902659858
lhand -29.684976909479143 2.5771075963694927
lfingers 7.125019999999998
lthumb -3.11578191528972 32.57191970926099
rclavicle 4.28752700038245e-15 5.761646213958064e-17
rhumerus -42.720286632756505 13.773769197126004 -98.39118276212251
rradius 105.51422865865322
rwrist -9.193638601618897
rhand -20.442241435046277 36.497497219974456
rfingers 7.125019999999998
rthumb 6.015229278089572 6.331427392594877
